<svg xmlns="http://www.w3.org/2000/svg" viewBox="0 0 1000 247.789" width="1000" height="247.789"><path d="M223.779 122.895a6 6 0 0 0-6 6V235.79h-64.384v-67.102a6 6 0 0 0-6-6h-47a6 6 0 0 0-6 6v53.207a6 6 0 0 0 12 0v-47.207h35v61.102H30.01V88.929l93.884-75.239 96.132 77.04a6 6 0 1 0 7.504-9.364L127.646 1.318a5.998 5.998 0 0 0-7.504 0L20.258 81.366a5.999 5.999 0 0 0-2.248 4.682v155.741a6 6 0 0 0 6 6h199.769a6 6 0 0 0 6-6V128.895a6 6 0 0 0-6-6z" fill="#fff"/><text style="line-height:1.25;-inkscape-font-specification:Junegull" x="219.596" y="230.945" font-weight="400" font-size="282.165" font-family="Junegull" letter-spacing="0" word-spacing="0" fill="#fff"><tspan x="219.596" y="230.945" style="-inkscape-font-specification:sans-serif" font-family="sans-serif">BLOG</tspan></text></svg>